<?xml version="1.0" standalone="no"?>
<?xml-stylesheet href="/_asset/svg.css/svg.css" type="text/css"?>
<!-- Generator: Gravit.io --><svg xmlns="http://www.w3.org/2000/svg" xmlns:xlink="http://www.w3.org/1999/xlink" style="isolation:isolate" viewBox="0 0 560 150"  ><defs><clipPath id="_clipPath_rnACfnjnxPlpyvnO5hlA91Gv3XlrFWDJ"><rect width="560" height="150"/></clipPath></defs><g clip-path="url(#_clipPath_rnACfnjnxPlpyvnO5hlA91Gv3XlrFWDJ)"><g id="Group"><g id="opusvl_built_with_fb_footer"><path d=" M 240.432 130.298 C 240.432 136.893 235.086 142.237 228.493 142.237 C 221.899 142.237 216.556 136.893 216.556 130.298 C 216.556 123.707 221.899 118.358 228.493 118.358 C 235.086 118.358 240.432 123.707 240.432 130.298 Z " fill="rgb(97,147,192)"/><clipPath id="_clipPath_LeIUi88doSegSCFxQgv8BJMpMEr6kN5j"><rect x="13.5" y="7.763" width="533" height="134.328" transform="matrix(1,0,0,1,0,0)" fill="rgb(255,255,255)"/></clipPath><g clip-path="url(#_clipPath_LeIUi88doSegSCFxQgv8BJMpMEr6kN5j)"><g id="Group"><g id="Group"><path d=" M 300.481 130.298 C 300.481 136.893 295.135 142.237 288.544 142.237 C 281.948 142.237 276.604 136.893 276.604 130.298 C 276.604 123.707 281.948 118.358 288.544 118.358 C 295.135 118.358 300.481 123.707 300.481 130.298 Z " fill="rgb(97,147,192)"/></g></g></g><clipPath id="_clipPath_5BDjRTw4riQgcj8FKutxT3jUefkGg41z"><rect x="13.5" y="7.763" width="533" height="134.328" transform="matrix(1,0,0,1,0,0)" fill="rgb(255,255,255)"/></clipPath><g clip-path="url(#_clipPath_5BDjRTw4riQgcj8FKutxT3jUefkGg41z)"><g id="Group"><g id="Group"><path d=" M 360.527 130.298 C 360.527 136.893 355.181 142.239 348.588 142.239 C 341.997 142.239 336.651 136.893 336.651 130.298 C 336.651 123.704 341.997 118.358 348.588 118.358 C 355.181 118.358 360.527 123.704 360.527 130.298 Z " fill="rgb(97,147,192)"/></g></g></g><path d=" M 82.819 49.606 L 82.819 49.373 C 82.819 33.742 71.438 20.751 55.461 20.751 C 39.482 20.751 28.334 33.512 28.334 49.146 L 28.334 49.373 C 28.334 65.009 39.712 77.881 55.689 77.881 C 71.669 77.881 82.819 65.236 82.819 49.606 Z  M 13.505 49.606 L 13.505 49.373 C 13.505 26.731 30.976 7.763 55.689 7.763 C 80.404 7.763 97.646 26.501 97.646 49.146 L 97.646 49.373 C 97.646 72.02 80.174 90.986 55.461 90.986 C 30.746 90.986 13.505 72.248 13.505 49.606 Z " fill="rgb(203,203,203)"/><path d=" M 153.969 50.984 C 164.659 50.984 171.326 45.007 171.326 36.615 L 171.326 36.385 C 171.326 26.959 164.545 22.018 153.969 22.018 L 137.531 22.018 L 137.531 50.984 L 153.969 50.984 Z  M 123.392 9.143 L 155.119 9.143 C 173.968 9.143 185.695 19.834 185.695 36.041 L 185.695 36.271 C 185.695 54.316 171.212 63.742 153.508 63.742 L 137.531 63.742 L 137.531 89.608 L 123.392 89.608 L 123.392 9.143 Z " fill="rgb(203,203,203)"/><path d=" M 207.533 55.467 L 207.533 9.143 L 221.669 9.143 L 221.669 54.893 C 221.669 69.836 229.371 77.767 242.016 77.767 C 254.546 77.767 262.245 70.293 262.245 55.467 L 262.245 9.143 L 276.384 9.143 L 276.384 54.776 C 276.384 78.801 262.819 90.872 241.785 90.872 C 220.865 90.872 207.533 78.801 207.533 55.467 Z " fill="rgb(203,203,203)"/><path d=" M 299.026 77.881 L 307.534 67.765 C 315.233 74.432 323.051 78.225 332.937 78.225 C 341.673 78.225 347.19 74.088 347.19 68.111 L 347.19 67.881 C 347.19 62.134 343.971 59.029 329.028 55.58 C 311.901 51.444 302.245 46.387 302.245 31.558 L 302.245 31.328 C 302.245 17.533 313.739 7.993 329.719 7.993 C 341.443 7.993 350.753 11.556 358.914 18.109 L 351.329 28.797 C 344.088 23.396 336.846 20.524 329.489 20.524 C 321.211 20.524 316.384 24.774 316.384 30.064 L 316.384 30.294 C 316.384 36.501 320.063 39.259 335.582 42.938 C 352.593 47.075 361.329 53.168 361.329 66.503 L 361.329 66.731 C 361.329 81.79 349.491 90.756 332.593 90.756 C 320.293 90.756 308.682 86.503 299.026 77.881 Z " fill="rgb(203,203,203)"/><path d=" M 388.34 9.143 L 403.973 9.143 L 428.226 70.986 L 452.365 9.143 L 467.654 9.143 L 434.319 90.182 L 421.788 90.182 L 388.34 9.143 Z " fill="rgb(97,147,192)"/><path d=" M 490.068 9.143 L 504.197 9.143 L 504.197 76.731 L 546.495 76.731 L 546.495 89.608 L 490.068 89.608 L 490.068 9.143 Z " fill="rgb(97,147,192)"/></g></g></g></svg>