<?xml version="1.0" standalone="no"?>
<!DOCTYPE svg PUBLIC "-//W3C//DTD SVG 20010904//EN"
 "http://www.w3.org/TR/2001/REC-SVG-20010904/DTD/svg10.dtd">
<svg version="1.0" xmlns="http://www.w3.org/2000/svg"
 width="618.000000pt" height="523.000000pt" viewBox="0 0 618.000000 523.000000"
 preserveAspectRatio="xMidYMid meet">

<g transform="translate(0.000000,523.000000) scale(0.100000,-0.100000)"
fill="#000000" stroke="none">
<path d="M0 2615 l0 -2615 3090 0 3090 0 0 2551 0 2550 -34 -28 c-18 -15 -831
-730 -1805 -1588 -974 -858 -1776 -1560 -1782 -1560 -6 0 -140 187 -299 415
-243 350 -286 417 -273 427 8 6 955 546 2104 1200 l2089 1188 0 38 0 37 -3090
0 -3090 0 0 -2615z"/>
</g>
</svg>
