<?xml version="1.0" standalone="no"?>
<!DOCTYPE svg PUBLIC "-//W3C//DTD SVG 20010904//EN"
 "http://www.w3.org/TR/2001/REC-SVG-20010904/DTD/svg10.dtd">
<svg version="1.0" xmlns="http://www.w3.org/2000/svg"
 width="4115.000000pt" height="4146.000000pt" viewBox="0 0 4115.000000 4146.000000"
 preserveAspectRatio="xMidYMid meet">

<g transform="translate(0.000000,4146.000000) scale(0.100000,-0.100000)"
fill="#000000" stroke="none">
<path d="M2 31423 c1 -5521 3 -10009 5 -9973 22 537 48 934 89 1345 299 3059
1272 6011 2849 8640 1543 2574 3600 4760 6080 6462 1286 883 2744 1649 4201
2209 2084 800 4255 1248 6509 1343 105 4 -4293 9 -9772 9 l-9963 2 2 -10037z"/>
<path d="M21300 41453 c200 -7 694 -35 920 -53 3157 -253 6182 -1225 8905
-2863 1098 -661 2191 -1470 3140 -2326 595 -536 1219 -1168 1734 -1756 1558
-1778 2796 -3795 3669 -5981 893 -2234 1386 -4592 1471 -7029 4 -121 9 4333 9
9898 l2 10117 -9967 -2 c-5483 -1 -9930 -3 -9883 -5z"/>
<path d="M41137 19993 c-30 -1078 -178 -2332 -408 -3463 -487 -2387 -1393
-4671 -2677 -6750 -710 -1150 -1539 -2236 -2481 -3250 -334 -360 -910 -925
-1306 -1281 -2079 -1872 -4554 -3316 -7195 -4199 -1281 -429 -2565 -722 -3895
-890 -645 -81 -1113 -119 -1895 -153 -36 -2 4420 -4 9903 -5 l9967 -2 0 10115
c0 5563 -2 10115 -3 10115 -2 0 -7 -107 -10 -237z"/>
<path d="M2 10038 l-2 -10038 9968 2 c5482 1 9938 3 9902 5 -498 21 -808 40
-1175 73 -2897 264 -5683 1138 -8218 2577 -2351 1334 -4441 3144 -6111 5293
-2411 3101 -3888 6808 -4270 10715 -41 411 -67 808 -89 1345 -2 36 -4 -4452
-5 -9972z"/>
</g>
</svg>
