<?xml version="1.0" encoding="UTF-8" standalone="no"?>
<svg
   xmlns:dc="http://purl.org/dc/elements/1.1/"
   xmlns:cc="http://creativecommons.org/ns#"
   xmlns:rdf="http://www.w3.org/1999/02/22-rdf-syntax-ns#"
   xmlns:svg="http://www.w3.org/2000/svg"
   xmlns="http://www.w3.org/2000/svg"
   xmlns:sodipodi="http://sodipodi.sourceforge.net/DTD/sodipodi-0.dtd"
   xmlns:inkscape="http://www.inkscape.org/namespaces/inkscape"
   xml:space="preserve"
   overflow="visible"
   height="120"
   width="300"
   version="1.1"
   enable-background="new 0 0 180 72"
   viewBox="0 0 300 120"
   id="svg2"
   inkscape:version="0.91 r13725"
   sodipodi:docname="NHS-Logo-combined.svg"><defs
     id="defs18" /><sodipodi:namedview
     pagecolor="#ffffff"
     bordercolor="#666666"
     borderopacity="1"
     objecttolerance="10"
     gridtolerance="10"
     guidetolerance="10"
     inkscape:pageopacity="0"
     inkscape:pageshadow="2"
     inkscape:window-width="1920"
     inkscape:window-height="1004"
     id="namedview16"
     showgrid="false"
     inkscape:zoom="1.29"
     inkscape:cx="150"
     inkscape:cy="60"
     inkscape:window-x="0"
     inkscape:window-y="488"
     inkscape:window-maximized="1"
     inkscape:current-layer="svg2" /><metadata
     id="metadata4"><rdf:RDF><cc:Work
         rdf:about=""><dc:format>image/svg+xml</dc:format><dc:type
           rdf:resource="http://purl.org/dc/dcmitype/StillImage" /><dc:title></dc:title></cc:Work></rdf:RDF></metadata><path
     sodipodi:nodetypes="cssssccssssccccccccccccccccccccccccc"
     inkscape:connector-curvature="0"
     d="m 288.76667,13.791667 c -6.575,-3.085 -17.91666,-4.3416668 -29.965,-4.3416668 -21.42,0 -43.545,7.5649998 -43.545,32.7650008 0,27.585 37.95167,21.703334 37.95167,37.390001 0,10.081666 -12.74667,11.621666 -20.86834,11.621666 -8.54166,0 -18.89666,-2.241666 -24.07666,-5.598333 l -6.17,19.876665 c 8.54166,2.66167 20.16333,5.04167 30.24666,5.04167 22.68501,0 47.74667,-6.99833 47.74667,-34.023335 0,-29.688334 -37.94,-24.505001 -37.94,-38.368334 0,-7.836667 8.39834,-9.383334 18.75334,-9.383334 9.66333,0 16.525,2.105 21.56666,4.485 m -172.5,75.613333 26.19,0 8.67333,-41.868332 30.95167,0 -8.68833,41.868332 26.18666,0 20.3,-97.736666 -26.18166,0 -7.69834,37.386667 -30.94666,0 7.70333,-37.386667 -26.185,0 M 8.4650002,108.87 l 24.6483338,0 13.578334,-67.633333 0.281666,0 20.443334,67.633333 32.488334,0 20.723338,-97.736666 -24.651671,0 -13.716667,67.766668 -0.276667,0 -20.028334,-67.766668 -32.621667,0"
     id="path14" /><path
     id="path3413"
     d="m 288.76667,13.791667 c -6.575,-3.085 -17.91666,-4.3416668 -29.965,-4.3416668 -21.42,0 -43.545,7.5649998 -43.545,32.7650008 0,27.585 37.95167,21.703334 37.95167,37.390001 0,10.081666 -12.74667,11.621666 -20.86834,11.621666 -8.54166,0 -18.89666,-2.241666 -24.07666,-5.598333 l -6.17,19.876665 c 8.54166,2.66167 20.16333,5.04167 30.24666,5.04167 22.68501,0 47.74667,-6.99833 47.74667,-34.023335 0,-29.688334 -37.94,-24.505001 -37.94,-38.368334 0,-7.836667 8.39834,-9.383334 18.75334,-9.383334 9.66333,0 16.525,2.105 21.56666,4.485 m -172.5,75.613333 26.19,0 8.67333,-41.868332 30.95167,0 -8.68833,41.868332 26.18666,0 20.3,-97.736666 -26.18166,0 -7.69834,37.386667 -30.94666,0 7.70333,-37.386667 -26.185,0 M 8.4650002,108.87 l 24.6483338,0 13.578334,-67.633333 0.281666,0 20.443334,67.633333 32.488334,0 20.723338,-97.736666 -24.651671,0 -13.716667,67.766668 -0.276667,0 -20.028334,-67.766668 -32.621667,0"
     inkscape:connector-curvature="0"
     sodipodi:nodetypes="cssssccssssccccccccccccccccccccccccc" /></svg>