<?xml version="1.0" standalone="no"?>
<!DOCTYPE svg PUBLIC "-//W3C//DTD SVG 20010904//EN"
 "http://www.w3.org/TR/2001/REC-SVG-20010904/DTD/svg10.dtd">
<svg version="1.0" xmlns="http://www.w3.org/2000/svg"
 width="90.000000pt" height="94.000000pt" viewBox="0 0 90.000000 94.000000"
 preserveAspectRatio="xMidYMid meet">

<g transform="translate(0.000000,94.000000) scale(0.100000,-0.100000)"
fill="#000000" stroke="none">
<path d="M305 862 c-72 -30 -132 -71 -169 -114 -41 -48 -82 -127 -92 -175 l-6
-33 161 0 161 0 0 170 c0 94 -3 170 -7 169 -5 0 -26 -8 -48 -17z"/>
<path d="M550 705 l0 -165 150 0 c149 0 150 0 150 23 0 38 -57 145 -106 197
-43 46 -148 110 -181 110 -10 0 -13 -34 -13 -165z"/>
<path d="M46 358 c31 -101 124 -211 217 -258 100 -50 97 -55 97 125 l0 155
-161 0 -160 0 7 -22z"/>
<path d="M550 224 l0 -155 23 6 c107 32 190 104 242 208 19 38 35 76 35 83 0
11 -30 14 -150 14 l-150 0 0 -156z"/>
</g>
</svg>
